<?xml version="1.0" standalone="no"?>
<!DOCTYPE svg PUBLIC "-//W3C//DTD SVG 20010904//EN"
 "http://www.w3.org/TR/2001/REC-SVG-20010904/DTD/svg10.dtd">
<svg version="1.0" xmlns="http://www.w3.org/2000/svg"
 width="261.000000pt" height="261.000000pt" viewBox="0 0 261.000000 261.000000"
 preserveAspectRatio="xMidYMid meet">
<metadata>
Created by potrace 1.14, written by Peter Selinger 2001-2017
</metadata>
<g transform="translate(0.000000,261.000000) scale(0.100000,-0.100000)"
fill="#000000" stroke="none">
<path d="M1326 2593 c-1 -1 -62 -3 -135 -4 l-133 -1 -57 -40 -58 -40 -116 1
c-107 1 -118 3 -142 25 -25 23 -25 23 -258 20 -127 -2 -264 -3 -304 -4 l-71 0
-17 -49 c-14 -43 -14 -53 -1 -91 20 -58 20 -280 0 -346 -14 -48 -20 -221 -9
-274 3 -14 7 -35 9 -47 3 -12 9 -31 15 -42 20 -37 22 -89 6 -145 -19 -64 -14
-86 26 -138 48 -61 38 -117 -28 -149 l-44 -21 6 -87 c3 -47 7 -95 9 -106 2
-11 4 -31 5 -44 0 -13 17 -38 36 -57 l35 -33 -6 -73 c-11 -154 -13 -162 -36
-180 -23 -17 -23 -18 -23 -272 0 -251 0 -256 20 -256 12 0 26 -5 33 -12 15
-15 147 -21 173 -7 15 8 24 8 32 0 14 -14 54 -14 59 0 3 9 10 9 27 -1 19 -10
32 -10 64 1 35 12 41 11 52 -4 13 -18 35 -22 50 -8 19 17 61 20 86 7 18 -9 32
-10 43 -4 11 6 22 6 31 -2 11 -9 25 -8 60 6 43 16 48 16 80 1 45 -21 184 -26
196 -6 6 10 11 5 19 -16 13 -35 48 -75 65 -75 6 0 22 11 35 25 28 30 42 31
100 4 25 -12 59 -23 75 -24 17 -2 41 -6 53 -9 18 -4 31 2 51 24 l27 30 144 0
c80 0 154 0 165 0 41 0 161 17 177 24 9 4 37 0 63 -9 35 -11 51 -13 61 -4 10
8 21 7 45 -5 38 -19 78 -20 151 -5 64 14 87 28 64 41 -9 5 -16 13 -16 19 0 18
117 1 193 -29 l76 -29 -4 281 c-2 154 -4 395 -5 534 l-3 252 -36 0 c-34 1 -35
1 -16 16 18 14 20 27 20 168 l0 154 -31 38 c-47 60 -47 60 -13 99 24 27 29 39
20 48 -19 19 -12 35 19 42 16 3 31 14 34 23 11 35 9 557 -1 583 -7 16 -8 31
-2 40 5 8 9 41 7 74 -1 56 -4 62 -37 87 -31 23 -48 27 -131 31 -52 3 -102 8
-111 12 -10 4 -28 -4 -46 -19 -32 -27 -43 -25 -43 6 0 10 -3 18 -7 19 -5 0
-16 2 -25 4 -10 2 -75 6 -145 9 -71 4 -174 9 -230 12 -103 6 -103 6 -104 -18
-1 -27 -6 -58 -11 -63 -2 -2 -28 -5 -59 -8 -53 -5 -57 -4 -73 24 -15 25 -23
29 -64 29 l-47 0 30 20 c17 11 26 20 20 21 -17 3 -167 4 -169 2z m-683 -532
c72 -52 117 -90 117 -101 0 -12 9 -17 31 -18 24 -1 170 -93 613 -390 803 -538
858 -575 870 -594 13 -21 -6 -99 -71 -298 -28 -86 -52 -142 -66 -153 -20 -17
-34 -18 -172 -12 l-150 7 -48 52 c-76 80 -495 521 -577 607 -43 45 -284 298
-364 383 -21 23 -77 82 -125 131 -222 232 -386 407 -389 414 -1 4 22 15 52 25
31 9 58 21 61 26 3 5 27 8 53 6 43 -2 62 -12 165 -85z m1381 28 c36 -24 68
-50 71 -58 5 -12 -37 -276 -52 -324 -3 -13 -12 -18 -27 -15 -21 4 -464 336
-465 348 -1 9 72 34 87 31 7 -1 41 7 75 18 34 11 80 23 102 26 22 3 56 10 75
15 48 12 59 8 134 -41z m-1501 -1051 c93 -87 477 -463 477 -467 0 -3 -67 -31
-148 -61 -137 -50 -153 -54 -230 -53 -81 1 -84 2 -135 42 -29 22 -76 63 -106
90 -62 59 -62 56 1 189 62 133 109 245 111 265 2 21 1 22 30 -5z"/>
</g>
</svg>
